<svg xmlns="http://www.w3.org/2000/svg" xml:space="preserve" width="2000" height="123" data-id="lg_2mS2q6PHMLmXZx743T" data-version="1" viewBox="0 0 2000 123"><g data-padding="20"><g transform="translate(10 2.193)scale(.96435)"><path fill="none" stroke="#29231d" stroke-width="5" d="M787.222 21.7a40 40 0 1 0 0 80 40 40 0 1 0 0-80Z" paint-order="stroke" vector-effect="non-scaling-stroke"/><rect width="25.635" height="54.432" x="577.97" y="-691.339" fill="#fefbf6" rx="0" ry="0" transform="rotate(19.9 -1080.198 764.822)scale(.8)" vector-effect="non-scaling-stroke"/><path fill="#29231d" d="M817.038 80.051a2.993 2.993 0 1 0 0 5.986 2.993 2.993 0 1 0 0-5.986m5.984-14.4a2.993 2.993 0 1 0 0 5.986 2.993 2.993 0 1 0 0-5.986" vector-effect="non-scaling-stroke"/><rect width="456.415" height="123.17" x="397.044" y="-400.285" fill="none" rx="0" ry="0" transform="translate(452.29 400.2)"/><path fill="#29231d" d="M873.532 95.73h-.76q-4.58 0-8.18-2.51-3.59-2.5-5.61-6.92-2.02-4.41-2.02-10.19v-60.6q0-2.18 1.37-3.55 1.36-1.36 3.54-1.36 2.29 0 3.65 1.36 1.36 1.37 1.36 3.55v60.6q0 4.25 1.69 6.98 1.69 2.72 4.2 2.72h2.72q2.08 0 3.27 1.36 1.2 1.37 1.2 3.66 0 2.18-1.79 3.54-1.8 1.36-4.64 1.36m42.95.45q-8.18 0-14.61-3.93-6.43-3.92-10.13-10.79-3.71-6.86-3.71-15.48 0-8.72 3.98-15.53t10.79-10.79 15.31-3.98q8.61 0 15.37 3.98t10.74 10.85q3.98 6.86 4.09 15.47l-3.93.99q0 8.28-3.7 14.93-3.71 6.65-9.98 10.46-6.26 3.82-14.22 3.82m1.63-8.94q5.89 0 10.47-2.78t7.25-7.63 2.67-10.85q0-6.1-2.67-10.95t-7.25-7.63-10.47-2.78q-5.66 0-10.35 2.78t-7.36 7.63-2.67 10.95q0 6 2.67 10.85t7.36 7.63 10.35 2.78m25.07 8.61q-2.18 0-3.59-1.42-1.42-1.41-1.42-3.59V73.4l2.07-10.47 8.07 3.05v24.86q0 2.18-1.47 3.59-1.48 1.42-3.66 1.42m51.68.32q-8.5 0-15.31-3.93-6.82-3.92-10.74-10.79-3.93-6.86-4.03-15.37V15.62q0-2.29 1.41-3.66 1.42-1.36 3.6-1.36 2.29 0 3.65 1.36 1.36 1.37 1.36 3.66v30.52q3.82-4.8 9.38-7.63 5.56-2.84 12.42-2.84 8.07 0 14.5 3.98t10.19 10.79 3.76 15.43q0 8.61-3.98 15.47-3.97 6.87-10.79 10.85-6.81 3.98-15.42 3.98m0-8.94q5.78 0 10.41-2.78t7.3-7.63 2.67-10.95q0-6.11-2.67-10.9-2.67-4.8-7.3-7.58t-10.41-2.78-10.41 2.78-7.25 7.58q-2.61 4.79-2.61 10.9 0 6.1 2.61 10.95 2.62 4.85 7.25 7.63t10.41 2.78m122.72-43.92-34.99 31.39-6.1-6.75 34.99-31.29q1.42-1.41 3.22-1.36 1.79.06 3.1 1.58 1.42 1.53 1.36 3.33-.05 1.79-1.58 3.1m-39.13 52.43q-2.18 0-3.54-1.36t-1.36-3.54V15.52q0-2.18 1.36-3.55 1.36-1.36 3.54-1.36t3.55 1.36q1.36 1.37 1.36 3.55v75.32q0 2.18-1.36 3.54-1.37 1.36-3.55 1.36m39.46-.54q-1.63 1.3-3.54 1.14t-3.22-1.8l-22.89-28.23 6.87-6.54 23.43 28.89q1.31 1.52 1.15 3.32t-1.8 3.22m44.59.98q-8.61 0-15.37-3.98t-10.62-10.79q-3.87-6.81-3.87-15.43 0-8.82 3.76-15.69t10.3-10.74 15.15-3.87q6.43 0 11.88 2.51t9.7 7.52q1.42 1.53 1.04 3.27-.39 1.74-2.24 3.05-1.31.98-3.05.66-1.75-.33-3.05-1.86-5.78-6.21-14.28-6.21-5.78 0-10.19 2.73-4.42 2.72-6.87 7.46t-2.45 11.17q0 6.11 2.56 10.9 2.56 4.8 7.14 7.58t10.46 2.78q4.03 0 7.2-.98 3.16-.98 5.66-3.16 1.53-1.31 3.22-1.42t3 .98q1.63 1.42 1.85 3.16.22 1.75-1.2 3.05-7.85 7.31-19.73 7.31m82.5-52.87-34.98 31.39-6.11-6.75 34.99-31.29q1.42-1.41 3.22-1.36 1.79.06 3.1 1.58 1.42 1.53 1.37 3.33-.06 1.79-1.59 3.1m-39.13 52.43q-2.18 0-3.54-1.36t-1.36-3.54V15.52q0-2.18 1.36-3.55 1.36-1.36 3.54-1.36t3.55 1.36q1.36 1.37 1.36 3.55v75.32q0 2.18-1.36 3.54-1.37 1.36-3.55 1.36m39.46-.54q-1.63 1.3-3.54 1.14t-3.22-1.8l-22.89-28.23 6.87-6.54 23.44 28.89q1.3 1.52 1.14 3.32t-1.8 3.22m39.13.98q-7.19 0-13.62-2.24-6.43-2.23-10.14-6.16-1.42-1.63-1.2-3.59t1.96-3.38q1.86-1.42 3.82-1.2t3.27 1.74q2.18 2.4 6.38 4.15 4.19 1.74 9.21 1.74 7.08 0 10.51-2.34 3.44-2.35 3.55-5.84 0-3.59-3.38-6.05-3.38-2.45-11.88-3.86-11.01-2.08-16.03-6.44-5.01-4.36-5.01-10.57 0-5.56 3.11-9.21 3.1-3.65 8.17-5.45t10.74-1.8q7.19 0 12.64 2.35 5.45 2.34 8.72 6.48 1.42 1.64 1.26 3.38-.17 1.74-1.8 2.94-1.64.98-3.76.66-2.13-.33-3.55-1.86-2.72-2.83-6.05-3.97-3.32-1.15-7.68-1.15-5.23 0-8.67 1.96-3.43 1.97-3.43 5.34 0 2.18 1.15 3.82 1.14 1.63 4.3 3 3.16 1.36 9.05 2.45 8.17 1.53 12.91 4.03 4.75 2.51 6.82 5.89t2.07 7.63q0 5.01-2.78 8.99t-8.01 6.27q-5.24 2.29-12.65 2.29"/><rect width="46.806" height="39.55" x="601.849" y="-358.475" fill="none" rx="0" ry="0" transform="translate(160.58 403.55)"/><path fill="#29231d" d="M806.122 77.16h-14.74q-.66 0-1.13-.48-.48-.47-.48-1.17V51.47q0-.7.48-1.18.47-.47 1.13-.47.7 0 1.18.47.47.48.47 1.18v22.47h13.09q.66 0 1.15.45.49.46.49 1.16 0 .66-.49 1.13-.49.48-1.15.48m7.66 0q-.66 0-1.15-.48-.49-.47-.49-1.17V51.47q0-.7.49-1.18.49-.47 1.15-.47.7 0 1.18.47.47.48.47 1.18v11.02l12.04-12.04q.38-.35.68-.49t.65-.14q.8 0 1.15.47.35.48.28 1.12-.07.65-.56 1.21l-9.2 9.21 9.34 12.7q.39.56.32 1.17-.07.62-.46 1.04-.38.42-1.01.42-.91 0-1.37-.7l-9.1-12.36-2.76 2.77v8.64q0 .7-.47 1.17-.48.48-1.18.48" paint-order="stroke"/></g><path fill="transparent" stroke="transparent" d="M720.429 0h561v123h-561z"/></g></svg>